<mxfile host="app.diagrams.net" modified="2023-11-05T18:56:06.981Z" agent="Mozilla/5.0 (Macintosh; Intel Mac OS X 10_15_7) AppleWebKit/605.1.15 (KHTML, like Gecko) Version/17.0.1 Safari/605.1.15" etag="7QrptvBbWl06lctRhn8Z" version="22.0.8" type="github">
  <diagram name="Seite-1" id="v_r-vHRg6BCk8FgXEwhE">
    <mxGraphModel dx="1720" dy="2160" grid="0" gridSize="10" guides="1" tooltips="1" connect="1" arrows="1" fold="1" page="0" pageScale="1" pageWidth="827" pageHeight="1169" math="0" shadow="0">
      <root>
        <mxCell id="0" />
        <mxCell id="1" parent="0" />
        <mxCell id="GcSshEZMimA4hld2Jp4h-1" value="" style="rounded=0;whiteSpace=wrap;html=1;fontSize=16;" parent="1" vertex="1">
          <mxGeometry x="-78" y="-214" width="890" height="913" as="geometry" />
        </mxCell>
        <mxCell id="GcSshEZMimA4hld2Jp4h-2" value="Register A" style="rounded=0;whiteSpace=wrap;html=1;fontSize=16;" parent="1" vertex="1">
          <mxGeometry x="-60" y="-198" width="98" height="351" as="geometry" />
        </mxCell>
        <mxCell id="GcSshEZMimA4hld2Jp4h-3" value="Register B" style="rounded=0;whiteSpace=wrap;html=1;fontSize=16;" parent="1" vertex="1">
          <mxGeometry x="59" y="-200" width="98" height="351" as="geometry" />
        </mxCell>
        <mxCell id="GcSshEZMimA4hld2Jp4h-4" value="Register C" style="rounded=0;whiteSpace=wrap;html=1;fontSize=16;" parent="1" vertex="1">
          <mxGeometry x="178" y="-200" width="98" height="351" as="geometry" />
        </mxCell>
        <mxCell id="GcSshEZMimA4hld2Jp4h-5" value="Register H" style="rounded=0;whiteSpace=wrap;html=1;fontSize=16;" parent="1" vertex="1">
          <mxGeometry x="322" y="-204" width="98" height="351" as="geometry" />
        </mxCell>
        <mxCell id="GcSshEZMimA4hld2Jp4h-6" value="Register L" style="rounded=0;whiteSpace=wrap;html=1;fontSize=16;" parent="1" vertex="1">
          <mxGeometry x="434" y="-204" width="98" height="351" as="geometry" />
        </mxCell>
        <mxCell id="GcSshEZMimA4hld2Jp4h-7" value="&lt;font style=&quot;font-size: 64px;&quot;&gt;CPU&lt;/font&gt;" style="text;html=1;strokeColor=none;fillColor=default;align=center;verticalAlign=middle;whiteSpace=wrap;rounded=0;fontSize=16;rotation=0;" parent="1" vertex="1">
          <mxGeometry x="172" y="-536" width="346" height="301" as="geometry" />
        </mxCell>
        <mxCell id="GcSshEZMimA4hld2Jp4h-8" value="ALU" style="rounded=0;whiteSpace=wrap;html=1;fontSize=16;" parent="1" vertex="1">
          <mxGeometry x="598" y="-198" width="153" height="368" as="geometry" />
        </mxCell>
        <mxCell id="GcSshEZMimA4hld2Jp4h-9" value="PC" style="rounded=0;whiteSpace=wrap;html=1;fontSize=16;" parent="1" vertex="1">
          <mxGeometry x="-45.5" y="165" width="69" height="402" as="geometry" />
        </mxCell>
        <mxCell id="GcSshEZMimA4hld2Jp4h-10" value="BLU" style="rounded=0;whiteSpace=wrap;html=1;fontSize=16;" parent="1" vertex="1">
          <mxGeometry x="598" y="180" width="158" height="503" as="geometry" />
        </mxCell>
        <mxCell id="GcSshEZMimA4hld2Jp4h-11" value="MAR" style="rounded=0;whiteSpace=wrap;html=1;fontSize=16;" parent="1" vertex="1">
          <mxGeometry x="-64" y="588" width="259" height="93" as="geometry" />
        </mxCell>
        <mxCell id="GcSshEZMimA4hld2Jp4h-12" value="MVR" style="rounded=0;whiteSpace=wrap;html=1;fontSize=16;" parent="1" vertex="1">
          <mxGeometry x="224" y="588" width="236" height="93" as="geometry" />
        </mxCell>
        <mxCell id="GcSshEZMimA4hld2Jp4h-13" value="BP" style="rounded=0;whiteSpace=wrap;html=1;fontSize=16;" parent="1" vertex="1">
          <mxGeometry x="45" y="157" width="69" height="402" as="geometry" />
        </mxCell>
        <mxCell id="GcSshEZMimA4hld2Jp4h-14" value="SP" style="rounded=0;whiteSpace=wrap;html=1;fontSize=16;" parent="1" vertex="1">
          <mxGeometry x="137" y="163" width="69" height="402" as="geometry" />
        </mxCell>
        <mxCell id="GcSshEZMimA4hld2Jp4h-15" value="CU" style="rounded=0;whiteSpace=wrap;html=1;fontSize=16;" parent="1" vertex="1">
          <mxGeometry x="229" y="175" width="338" height="389" as="geometry" />
        </mxCell>
      </root>
    </mxGraphModel>
  </diagram>
</mxfile>
